<svg id="Capa_1" data-name="Capa 1" xmlns="http://www.w3.org/2000/svg" viewBox="0 0 512 407.7">
  <title>study</title>
  <g>
    <path d="M500.9,44.9h-23V345.4s-30.8,9-103.5-12.9c-49.1-14.8-85.8,3-104.5,16.2-4,2.8-8.7,7.5-13.6,7.5h-.6c-4.9,0-9.6-4.7-13.6-7.5-18.7-13.2-55.4-31-104.5-16.2C64.9,354.4,34.1,345.4,34.1,345.4V44.9h-23A11.2,11.2,0,0,0,0,56.1V369.4a11.1,11.1,0,0,0,11.1,11.1H211.3a15.5,15.5,0,0,1,14,8.7,33.9,33.9,0,0,0,61.4,0,15.5,15.5,0,0,1,14-8.7H500.9A11.1,11.1,0,0,0,512,369.4V56.1a11.2,11.2,0,0,0-11.1-11.2Z" transform="translate(0 -1)" fill="#f87c68"/>
    <path d="M57,369.4V347.2c-15.7.3-22.9-1.8-22.9-1.8V44.9h-23A11.2,11.2,0,0,0,0,56.1V369.4a11.1,11.1,0,0,0,11.1,11.1h57A11.1,11.1,0,0,1,57,369.4Z" transform="translate(0 -1)" fill="#ec625e"/>
    <path d="M471.1,20.9c-14.9,1.2-46.6.8-96.7-14.3C301.6-15.4,256,34.5,256,34.5l-7.9,10.4V345.1l7.9,10.7v.4h.3a23.7,23.7,0,0,0,13.6-4.4c18.7-13.2,55.4-31,104.5-16.2C447.1,357.5,481,348.5,481,348.5V30.1a9.3,9.3,0,0,0-9.9-9.2Z" transform="translate(0 -1)" fill="#dbedff"/>
    <path d="M286.2,13.1C266.8,22.7,256,34.5,256,34.5l-7.9,10.4V345.1l7.9,10.7v.4h.3a23.7,23.7,0,0,0,13.6-4.4,127.6,127.6,0,0,1,16.3-9.7Z" transform="translate(0 -1)" fill="#b5dcff"/>
    <path d="M445.1,81.8h-.6c-21.7-1.7-46-6.6-72.4-14.5s-52.7-6.9-77.1,3.6a7.7,7.7,0,1,1-6.1-14.2c27.8-12,57.3-13.4,87.7-4.2,25.3,7.6,48.5,12.3,69.1,13.9a7.7,7.7,0,0,1-.6,15.4Z" transform="translate(0 -1)" fill="#8bcaff"/>
    <path d="M445.1,114.6h-.6c-21.6-1.7-46-6.5-72.4-14.5s-52.7-6.9-77.1,3.6a7.8,7.8,0,0,1-10.2-4,7.9,7.9,0,0,1,4.1-10.2c27.8-11.9,57.3-13.3,87.7-4.2,25.3,7.6,48.5,12.3,69.1,13.9a7.7,7.7,0,0,1-.6,15.4Z" transform="translate(0 -1)" fill="#8bcaff"/>
    <path d="M445.1,278.8h-.6c-21.7-1.7-46-6.5-72.4-14.5s-52.7-6.9-77.1,3.6a7.8,7.8,0,0,1-10.2-4,7.9,7.9,0,0,1,4.1-10.2c27.8-11.9,57.3-13.4,87.7-4.2,25.3,7.6,48.5,12.3,69.1,13.9a7.7,7.7,0,0,1-.6,15.4Z" transform="translate(0 -1)" fill="#8bcaff"/>
    <path d="M445.1,311.6h-.6c-21.7-1.6-46-6.5-72.4-14.5s-52.7-6.8-77.1,3.6a7.8,7.8,0,0,1-10.2-4,7.9,7.9,0,0,1,4.1-10.2c27.8-11.9,57.3-13.3,87.7-4.2,25.3,7.7,48.5,12.3,69.1,13.9a7.8,7.8,0,0,1,7.1,8.3,7.7,7.7,0,0,1-7.7,7.1Z" transform="translate(0 -1)" fill="#8bcaff"/>
    <path d="M445.1,147.5h-.6c-21.7-1.6-46-6.5-72.4-14.4s-52.7-6.9-77.1,3.6a7.9,7.9,0,0,1-10.2-4.1,7.8,7.8,0,0,1,4.1-10.1c27.8-12,57.3-13.4,87.7-4.2,25.3,7.6,48.5,12.3,69.1,13.8a7.9,7.9,0,0,1,7.1,8.3,7.7,7.7,0,0,1-7.7,7.2Z" transform="translate(0 -1)" fill="#8bcaff"/>
    <path d="M445.1,213.1h-.6c-21.6-1.7-46-6.5-72.4-14.5s-52.7-6.8-77.1,3.6a7.8,7.8,0,0,1-10.2-4,7.9,7.9,0,0,1,4.1-10.2c27.8-11.9,57.3-13.3,87.7-4.2,25.3,7.7,48.5,12.3,69.1,13.9a7.7,7.7,0,0,1-.6,15.4Z" transform="translate(0 -1)" fill="#8bcaff"/>
    <path d="M445.1,180.3h-.6c-21.7-1.7-46-6.6-72.4-14.5s-52.7-6.9-77.1,3.6a7.7,7.7,0,1,1-6.1-14.2c27.8-11.9,57.3-13.4,87.7-4.2,25.3,7.6,48.5,12.3,69.1,13.9a7.7,7.7,0,0,1-.6,15.4Z" transform="translate(0 -1)" fill="#8bcaff"/>
    <path d="M445.1,246h-.6c-21.6-1.6-46-6.5-72.4-14.4s-52.7-6.9-77.1,3.6a7.7,7.7,0,1,1-6.1-14.2c27.8-12,57.3-13.4,87.7-4.2,25.3,7.6,48.5,12.3,69.1,13.8a7.9,7.9,0,0,1,7.1,8.3,7.7,7.7,0,0,1-7.7,7.2Z" transform="translate(0 -1)" fill="#8bcaff"/>
    <path d="M40.9,20.9c14.9,1.2,46.6.8,96.7-14.3C210.4-15.4,256,34.5,256,34.5V356.2h-.3a23.7,23.7,0,0,1-13.6-4.4c-18.7-13.2-55.4-31-104.5-16.2C64.9,357.5,31,348.5,31,348.5V30.1a9.2,9.2,0,0,1,9.9-9.2Z" transform="translate(0 -1)" fill="#dbedff"/>
    <path d="M65,20.9a157.8,157.8,0,0,1-24.1,0A9.2,9.2,0,0,0,31,30.1V348.5s11,2.9,34,1.4Z" transform="translate(0 -1)" fill="#b5dcff"/>
    <path d="M66.9,81.8a7.7,7.7,0,0,1-.6-15.4c20.6-1.6,43.8-6.3,69.1-13.9,30.4-9.2,59.9-7.8,87.7,4.2A7.7,7.7,0,1,1,217,70.9c-24.4-10.5-50.3-11.7-77.1-3.6S89.2,80.1,67.5,81.8Z" transform="translate(0 -1)" fill="#8bcaff"/>
    <path d="M66.9,114.6a7.7,7.7,0,0,1-.6-15.4c20.6-1.6,43.8-6.3,69.1-13.9,30.4-9.1,59.9-7.7,87.7,4.2a7.9,7.9,0,0,1,4.1,10.2,7.8,7.8,0,0,1-10.2,4c-24.4-10.5-50.3-11.7-77.1-3.6s-50.8,12.8-72.4,14.5Z" transform="translate(0 -1)" fill="#8bcaff"/>
    <path d="M66.9,278.8a7.7,7.7,0,0,1-.6-15.4c20.6-1.6,43.8-6.3,69.1-13.9,30.4-9.2,59.9-7.7,87.7,4.2a7.9,7.9,0,0,1,4.1,10.2,7.8,7.8,0,0,1-10.2,4c-24.4-10.5-50.3-11.7-77.1-3.6s-50.7,12.8-72.4,14.5Z" transform="translate(0 -1)" fill="#8bcaff"/>
    <path d="M66.9,311.6a7.7,7.7,0,0,1-7.7-7.1,7.8,7.8,0,0,1,7.1-8.3c20.6-1.6,43.8-6.2,69.1-13.9,30.4-9.1,59.9-7.7,87.7,4.2a7.9,7.9,0,0,1,4.1,10.2,7.8,7.8,0,0,1-10.2,4c-24.4-10.4-50.3-11.6-77.1-3.6S89.2,310,67.5,311.6Z" transform="translate(0 -1)" fill="#8bcaff"/>
    <path d="M66.9,147.5a7.7,7.7,0,0,1-7.7-7.2,7.9,7.9,0,0,1,7.1-8.3c20.6-1.5,43.8-6.2,69.1-13.8,30.4-9.2,59.9-7.8,87.7,4.2a7.8,7.8,0,0,1,4.1,10.1,7.9,7.9,0,0,1-10.2,4.1c-24.4-10.5-50.3-11.7-77.1-3.6s-50.7,12.8-72.4,14.4Z" transform="translate(0 -1)" fill="#8bcaff"/>
    <path d="M66.9,213.1a7.7,7.7,0,0,1-7.7-7.1,7.7,7.7,0,0,1,7.1-8.3c20.6-1.6,43.8-6.2,69.1-13.9,30.4-9.1,59.9-7.7,87.7,4.2a7.9,7.9,0,0,1,4.1,10.2,7.8,7.8,0,0,1-10.2,4c-24.4-10.4-50.3-11.7-77.1-3.6s-50.8,12.8-72.4,14.5Z" transform="translate(0 -1)" fill="#8bcaff"/>
    <path d="M66.9,180.3a7.7,7.7,0,0,1-.6-15.4c20.6-1.6,43.8-6.3,69.1-13.9,30.4-9.2,59.9-7.8,87.7,4.2a7.7,7.7,0,1,1-6.1,14.2c-24.4-10.5-50.3-11.7-77.1-3.6s-50.7,12.8-72.4,14.5Z" transform="translate(0 -1)" fill="#8bcaff"/>
    <path d="M66.9,246a7.7,7.7,0,0,1-7.7-7.2,7.9,7.9,0,0,1,7.1-8.3c20.6-1.5,43.8-6.2,69.1-13.8,30.4-9.2,59.9-7.8,87.7,4.2a7.7,7.7,0,1,1-6.1,14.2c-24.4-10.5-50.3-11.7-77.1-3.6s-50.8,12.8-72.4,14.4Z" transform="translate(0 -1)" fill="#8bcaff"/>
  </g>
</svg>
